<?xml version="1.0" standalone="no"?><!DOCTYPE svg PUBLIC "-//W3C//DTD SVG 1.1//EN" "http://www.w3.org/Graphics/SVG/1.1/DTD/svg11.dtd"><svg t="1681957943378" class="icon" viewBox="0 0 1024 1024" version="1.1" xmlns="http://www.w3.org/2000/svg" p-id="2021" xmlns:xlink="http://www.w3.org/1999/xlink" width="200" height="200"><path d="M397.115077 443.076923m-206.769231 0a206.769231 206.769231 0 1 0 413.538462 0 206.769231 206.769231 0 1 0-413.538462 0Z" fill="#9f1bfa" p-id="2022"></path><path d="M878.749538 558.237538c-19.022769-44.780308-59.273846-72.152615-107.874461-72.152615-36.470154 0-71.207385 15.753846-95.271385 43.126154-24.142769 27.963077-35.052308 64.984615-29.814154 101.533538l0.630154 3.741539c8.192 43.953231-7.089231 73.728-21.385846 90.978461a118.665846 118.665846 0 0 1-87.552 42.220308c-28.672-29.459692-35.879385-82.983385-20.401231-153.206154 73.649231-5.986462 157.774769-59.352615 183.099077-192.787692 14.572308-4.529231 33.673846-9.491692 44.898462-12.327385 24.300308-6.262154 39.739077-10.318769 51.869538-15.753846 8.270769-3.702154 15.753846-9.058462 21.897846-15.753846 63.763692-8.743385 110.631385-49.624615 124.888616-110.867692l0.708923-3.66277a96.768 96.768 0 0 0-22.055385-78.966153c-17.329231-20.834462-42.259692-35.288615-72.585846-42.338462a173.843692 173.843692 0 0 0-33.043692-55.335385c-41.590154-47.497846-107.362462-74.791385-180.302769-74.791384-71.049846 0-179.593846 25.206154-304.20677 140.603077a308.499692 308.499692 0 0 0-45.371077-3.308308c-119.729231 0-204.8 63.212308-222.12923 164.942769a68.726154 68.726154 0 0 0 68.923077 80.265846l15.911384-1.575384c-19.968 53.169231-39.542154 129.024-26.939077 217.678769 27.451077 193.378462 184.241231 401.526154 463.675077 401.526154 29.459692 0 60.219077-2.363077 91.490462-6.892308a311.689846 311.689846 0 0 0 99.800615-37.494154l0.157539-0.078769c108.071385-47.458462 174.316308-152.221538 182.153846-289.083077l0.157538-3.899077c0.078769-55.886769-33.083077-100.824615-81.329231-116.342154z m-134.971076 351.468308l0.905846 0.196923c-18.668308 10.673231-46.946462 24.182154-76.248616 29.341539-28.790154 4.214154-56.162462 6.222769-81.998769 6.222769-265.373538 0-378.407385-206.848-397.981538-344.339692-19.298462-135.876923 51.712-237.371077 54.587077-260.962462-6.104615-24.103385-20.992-31.507692-38.163693-31.507692-27.451077 0-60.534154 19.101538-71.207384 19.101538l-3.426462-2.402461c14.651077-86.646154 94.759385-109.449846 156.632615-109.449846 28.081231 0 52.381538 4.686769 65.063385 10.200615 107.244308-108.898462 207.084308-147.574154 284.514462-147.574154 100.430769 0 163.249231 64.984615 155.490461 125.44l12.012308-0.393846c54.508308 0 79.005538 26.466462 75.264 48.167385-11.106462 47.419077-50.294154 61.203692-86.488616 61.203692-9.097846 0-18.077538-0.905846-26.190769-2.363077-26.820923-4.647385-43.913846-16.580923-49.152-16.580923l-1.851077 1.929846c-0.354462 25.481846 61.755077 27.490462 54.626462 36.627692-23.748923 10.555077-122.092308 26.624-130.953846 47.773539-14.808615 142.296615-96.807385 168.132923-136.113231 168.132923-14.966154 0-23.709538-3.820308-20.164923-6.301539 47.734154-37.257846 38.636308-85.661538 8.861538-85.661538-6.892308 0-14.808615 2.638769-23.433846 8.546461-223.310769 174.08-91.726769 456.428308 129.851077 456.428308h4.096c-126.227692-25.796923-229.927385-146.313846-155.726769-331.539692l3.780923-1.181539 3.544615 4.844308c-29.144615 124.140308 3.544615 201.452308 57.895385 238.907077 8.073846 1.299692 16.265846 1.772308 24.457846 1.772308 97.752615 0 199.128615-85.819077 175.419077-212.125539a59.667692 59.667692 0 0 1 59.195077-69.474461c23.433846 0 45.883077 14.178462 51.396923 46.355692 0.984615 7.246769 1.536 14.336 1.969231 21.385846h0.118154l-0.157539 0.118154v-0.078769c-23.906462 5.12-45.410462 24.615385-46.788923 57.777231 1.575385 115.003077-89.442462 180.854154-177.467077 181.563076h2.363077c88.418462 0 180.381538-65.969231 178.766769-181.563076a58.998154 58.998154 0 0 1 59.746462-59.155693c26.939077 0 52.932923 18.116923 52.932923 55.571693-7.364923 127.921231-71.325538 203.539692-149.976615 235.047384z" fill="#9f1bfa" p-id="2023"></path><path d="M672.059077 266.555077a43.323077 43.323077 0 0 0 33.004308-15.438769l-16.699077 4.332307A34.816 34.816 0 0 1 653.784615 220.553846c0-19.298462 15.556923-34.934154 34.579693-34.934154l9.570461 1.457231a42.811077 42.811077 0 0 0-25.836307-8.743385 43.913846 43.913846 0 0 0-43.756308 44.150154c0 24.339692 19.574154 44.110769 43.716923 44.11077z" fill="#9f1bfa" p-id="2024"></path><path d="M680.093538 197.868308l-4.489846 8.11323 9.137231 8.900924 9.058462-8.900924-4.529231-8.152615-4.608-1.220923z" fill="#9f1bfa" p-id="2025"></path></svg>